<?xml version="1.0" encoding="UTF-8"?>
<svg width="55px" height="7px" viewBox="0 0 55 7" version="1.1" xmlns="http://www.w3.org/2000/svg" xmlns:xlink="http://www.w3.org/1999/xlink">
    <!-- Generator: Sketch 49 (51002) - http://www.bohemiancoding.com/sketch -->
    <title>GOODREACT</title>
    <desc>Created with Sketch.</desc>
    <defs></defs>
    <g id="Page-1" stroke="none" stroke-width="1" fill="none" fill-rule="evenodd">
        <g id="t" transform="translate(-199.000000, -105.000000)" fill="#6E0EC5">
            <path d="M203.376,108.176 L204.472,108.176 L204.472,110.328 C203.88,110.76 202.976,111.056 202.2,111.056 C200.504,111.056 199.216,109.824 199.216,108.2 C199.216,106.584 200.528,105.36 202.272,105.36 C203.104,105.36 203.952,105.68 204.52,106.176 L203.808,107.08 C203.392,106.696 202.816,106.456 202.272,106.456 C201.28,106.456 200.512,107.216 200.512,108.2 C200.512,109.192 201.288,109.952 202.28,109.952 C202.616,109.952 203.016,109.832 203.376,109.648 L203.376,108.176 Z M208.524,105.36 C210.236,105.36 211.532,106.576 211.532,108.2 C211.532,109.816 210.236,111.056 208.524,111.056 C206.812,111.056 205.516,109.824 205.516,108.2 C205.516,106.568 206.812,105.36 208.524,105.36 Z M208.54,106.464 C207.596,106.464 206.812,107.216 206.812,108.2 C206.812,109.184 207.604,109.952 208.54,109.952 C209.476,109.952 210.236,109.184 210.236,108.2 C210.236,107.216 209.476,106.464 208.54,106.464 Z M215.168,105.36 C216.88,105.36 218.176,106.576 218.176,108.2 C218.176,109.816 216.88,111.056 215.168,111.056 C213.456,111.056 212.16,109.824 212.16,108.2 C212.16,106.568 213.456,105.36 215.168,105.36 Z M215.184,106.464 C214.24,106.464 213.456,107.216 213.456,108.2 C213.456,109.184 214.248,109.952 215.184,109.952 C216.12,109.952 216.88,109.184 216.88,108.2 C216.88,107.216 216.12,106.464 215.184,106.464 Z M219.348,105.4 L221.724,105.4 C223.46,105.4 224.668,106.544 224.668,108.2 C224.668,109.848 223.444,111 221.676,111 L219.348,111 L219.348,105.4 Z M220.612,106.464 L220.612,109.936 L221.756,109.936 C222.692,109.936 223.38,109.232 223.38,108.208 C223.38,107.176 222.66,106.464 221.7,106.464 L220.612,106.464 Z M229.28,111 L228.392,109.4 L227.104,109.4 L227.104,111 L225.84,111 L225.84,105.4 L228.272,105.4 C229.736,105.4 230.568,106.104 230.568,107.344 C230.568,108.208 230.2,108.832 229.52,109.152 L230.712,111 L229.28,111 Z M227.104,108.344 L228.272,108.344 C228.968,108.344 229.368,108.024 229.368,107.384 C229.368,106.76 228.968,106.448 228.272,106.448 L227.104,106.448 L227.104,108.344 Z M236.236,106.448 L233.236,106.448 L233.236,107.664 L235.94,107.664 L235.94,108.712 L233.236,108.712 L233.236,109.952 L236.324,109.952 L236.324,111 L231.972,111 L231.972,105.4 L236.236,105.4 L236.236,106.448 Z M241.352,109.912 L238.76,109.912 L238.32,111 L237.016,111 L239.448,105.4 L240.752,105.4 L243.144,111 L241.792,111 L241.352,109.912 Z M240.944,108.896 L240.064,106.72 L239.176,108.896 L240.944,108.896 Z M246.5,105.36 C247.308,105.36 248.156,105.72 248.708,106.288 L247.972,107.184 C247.588,106.744 247.036,106.456 246.516,106.456 C245.556,106.456 244.812,107.2 244.812,108.176 C244.812,109.152 245.556,109.904 246.516,109.904 C247.02,109.904 247.572,109.648 247.972,109.248 L248.716,110.056 C248.124,110.664 247.268,111.056 246.452,111.056 C244.78,111.056 243.516,109.816 243.516,108.192 C243.516,106.576 244.804,105.36 246.5,105.36 Z M253.936,106.472 L252.224,106.472 L252.224,111 L250.96,111 L250.96,106.472 L249.256,106.472 L249.256,105.4 L253.936,105.4 L253.936,106.472 Z" id="GOODREACT"></path>
        </g>
    </g>
</svg>