<?xml version="1.0" encoding="UTF-8"?>
<svg width="310px" height="60px" viewBox="0 0 310 60" version="1.1" xmlns="http://www.w3.org/2000/svg" xmlns:xlink="http://www.w3.org/1999/xlink">
    <!-- Generator: Sketch 49.2 (51160) - http://www.bohemiancoding.com/sketch -->
    <title>Group 2</title>
    <desc>Created with Sketch.</desc>
    <defs></defs>
    <g id="Page-1" stroke="none" stroke-width="1" fill="none" fill-rule="evenodd">
        <g id="Group-2" fill="white">
            <g id="Group" fill-rule="nonzero">
                <path d="M1,60 L30.998,60 L56.998,60 C58.003,60 58.936,59.5 59.494,58.665 C60.052,57.829 60.153,56.775 59.766,55.847 L50.998,34.8 L50.998,25.95 C52.138,25.718 52.998,24.708 52.998,23.5 C52.998,22.122 51.877,21 50.498,21 L37.498,21 C36.119,21 34.998,22.122 34.998,23.5 C34.998,24.708 35.858,25.717 36.998,25.95 L36.998,34.8 L28.228,55.846 C28.141,56.055 28.086,56.272 28.049,56.49 C28.038,56.554 28.033,56.617 28.026,56.682 C28.008,56.844 28.004,57.006 28.013,57.168 C28.017,57.233 28.018,57.296 28.026,57.361 C28.052,57.573 28.094,57.782 28.165,57.985 C28.167,57.99 28.167,57.995 28.168,58 L2,58 L2,8 L28,8 L28,15 C28,15.552 28.447,16 29,16 L36,16 L36,19 L38,19 L38,15 L37.991,15 C37.991,14.74 37.898,14.484 37.707,14.293 L29.707,6.293 C29.516,6.101 29.26,6.009 29,6.009 L29,6 L1,6 C0.447,6 0,6.448 0,7 L0,59 C0,59.552 0.447,60 1,60 Z M57.83,57.555 C57.641,57.838 57.338,58 56.998,58 L30.998,58 C30.657,58 30.354,57.838 30.165,57.555 C29.977,57.272 29.943,56.93 30.074,56.616 L34.081,47 L53.915,47 L57.921,56.616 C58.052,56.93 58.019,57.272 57.83,57.555 Z M37.498,23 L50.498,23 C50.773,23 50.998,23.224 50.998,23.5 C50.998,23.776 50.773,24 50.498,24 L49.998,24 L40.998,24 L40.998,26 L48.998,26 L48.998,33 L48,33 C45.561,33 43.524,34.755 43.087,37.069 C40.21,37.51 38,40.002 38,43 L40,43 C40,40.794 41.794,39 44,39 C44.553,39 45,38.552 45,38 C45,36.346 46.346,35 48,35 L48.998,35 C48.998,35.132 49.024,35.263 49.075,35.385 L53.081,45 L34.914,45 L38.921,35.385 C38.972,35.263 38.998,35.132 38.998,35 L38.998,25 C38.998,24.448 38.551,24 37.998,24 L37.498,24 C37.223,24 36.998,23.776 36.998,23.5 C36.998,23.224 37.223,23 37.498,23 Z M30,9.414 L34.586,14 L30,14 L30,9.414 Z" id="Shape"></path>
                <rect id="Rectangle-path" x="50" y="49" width="2" height="2"></rect>
                <rect id="Rectangle-path" x="44" y="52" width="2" height="2"></rect>
                <rect id="Rectangle-path" x="36" y="50" width="2" height="2"></rect>
                <path d="M53,4 C53,1.794 51.206,0 49,0 C47.141,0 45.589,1.28 45.142,3 L41.858,3 C41.411,1.28 39.859,0 38,0 C35.794,0 34,1.794 34,4 C34,6.206 35.794,8 38,8 C39.859,8 41.411,6.72 41.858,5 L45.142,5 C45.506,6.399 46.601,7.494 48,7.858 L48,11.142 C46.279,11.589 45,13.142 45,15 C45,17.206 46.794,19 49,19 C51.206,19 53,17.206 53,15 C53,13.142 51.721,11.589 50,11.142 L50,7.858 C51.721,7.411 53,5.858 53,4 Z M38,6 C36.897,6 36,5.103 36,4 C36,2.897 36.897,2 38,2 C39.103,2 40,2.897 40,4 C40,5.103 39.103,6 38,6 Z M47,4 C47,2.897 47.897,2 49,2 C50.103,2 51,2.897 51,4 C51,5.103 50.103,6 49,6 C47.897,6 47,5.103 47,4 Z M51,15 C51,16.103 50.103,17 49,17 C47.897,17 47,16.103 47,15 C47,13.897 47.897,13 49,13 C50.103,13 51,13.897 51,15 Z" id="Shape"></path>
                <rect id="Rectangle-path" x="56" y="13" width="2" height="2"></rect>
                <rect id="Rectangle-path" x="40" y="10" width="2" height="2"></rect>
                <rect id="Rectangle-path" x="58" y="0" width="2" height="2"></rect>
                <rect id="Rectangle-path" x="8" y="11" width="18" height="2"></rect>
                <rect id="Rectangle-path" x="4" y="18" width="29" height="2"></rect>
                <rect id="Rectangle-path" x="4" y="22" width="12" height="2"></rect>
                <rect id="Rectangle-path" x="19" y="22" width="14" height="2"></rect>
                <rect id="Rectangle-path" x="4" y="26" width="7" height="2"></rect>
                <rect id="Rectangle-path" x="13" y="26" width="10" height="2"></rect>
                <rect id="Rectangle-path" x="25" y="26" width="8" height="2"></rect>
                <path d="M4,54 C4,54.552 4.447,55 5,55 L22,55 C22.553,55 23,54.552 23,54 L23,40 C23,39.448 22.553,39 22,39 L5,39 C4.447,39 4,39.448 4,40 L4,54 Z M6,41 L21,41 L21,53 L6,53 L6,41 Z" id="Shape"></path>
                <rect id="Rectangle-path" x="8" y="47" width="2" height="5"></rect>
                <rect id="Rectangle-path" x="11" y="49" width="2" height="3"></rect>
                <rect id="Rectangle-path" x="14" y="44" width="2" height="8"></rect>
                <rect id="Rectangle-path" x="17" y="42" width="2" height="10"></rect>
                <rect id="Rectangle-path" x="4" y="30" width="29" height="2"></rect>
                <rect id="Rectangle-path" x="4" y="34" width="12" height="2"></rect>
                <rect id="Rectangle-path" x="19" y="34" width="14" height="2"></rect>
            </g>
            <text id="ACTREACT" font-family="Montserrat-SemiBold, Montserrat" font-size="36" font-weight="500" letter-spacing="2.82999992">
                <tspan x="94" y="45">ACTREAC</tspan>
                <tspan x="288.805999" y="45">T</tspan>
            </text>
        </g>
    </g>
</svg>
